<?xml version="1.0" standalone="no"?>
<!DOCTYPE svg PUBLIC "-//W3C//DTD SVG 20010904//EN"
 "http://www.w3.org/TR/2001/REC-SVG-20010904/DTD/svg10.dtd">
<svg version="1.0" xmlns="http://www.w3.org/2000/svg"
 width="1748.000000pt" height="1240.000000pt" viewBox="0 0 1748.000000 1240.000000"
 preserveAspectRatio="xMidYMid meet">

<g transform="translate(0.000000,1240.000000) scale(0.100000,-0.100000)"
fill="#000000" stroke="none">
<path d="M0 6200 l0 -6200 8740 0 8740 0 0 6200 0 6200 -8740 0 -8740 0 0
-6200z m2601 2264 c58 -17 157 -64 202 -96 32 -23 38 -63 8 -55 -10 2 -26 0
-35 -5 -15 -9 -13 -14 21 -44 32 -29 24 -25 -47 19 -93 59 -173 93 -235 102
-117 17 -181 -134 -156 -363 7 -57 10 -107 7 -110 -3 -3 -6 4 -6 16 0 26 -19
39 -31 21 -5 -8 -9 -9 -9 -3 0 5 6 16 13 23 10 10 7 10 -13 3 -19 -7 -26 -18
-30 -48 -6 -38 -6 -37 -17 26 -31 166 -25 293 18 389 24 54 72 108 114 127 41
18 130 17 196 -2z m986 -16 c54 -36 91 -115 111 -237 15 -86 14 -105 -1 -208
-9 -62 -21 -121 -27 -130 -10 -16 -11 -16 -6 -1 19 62 38 230 31 274 -5 27
-10 42 -12 32 -2 -9 -10 -19 -18 -22 -9 -3 -12 0 -8 10 9 24 -13 15 -27 -12
-13 -22 -15 -23 -21 -7 -3 10 -9 42 -13 72 -8 60 -33 116 -66 146 -15 14 -36
19 -75 19 -65 0 -182 -55 -295 -139 l-75 -56 55 51 c30 27 54 55 52 61 -1 6 2
8 8 4 5 -3 18 -1 27 4 21 12 22 12 -47 17 -44 2 -61 -1 -84 -18 -16 -11 -26
-16 -22 -10 9 15 118 92 171 122 117 67 266 79 342 28z m-721 -135 c-7 -7 -26
7 -26 19 0 6 6 6 15 -2 9 -7 13 -15 11 -17z m184 -36 c0 -2 -12 -14 -27 -28
l-28 -24 24 28 c23 25 31 32 31 24z m-753 -444 c-3 -10 -5 -4 -5 12 0 17 2 24
5 18 2 -7 2 -21 0 -30z m-40 -29 c-3 -3 -12 -4 -19 -1 -8 3 -5 6 6 6 11 1 17
-2 13 -5z m-37 -19 c0 -9 9 -15 23 -15 20 -1 21 -1 4 -11 -18 -10 -18 -11 0
-24 22 -16 24 -14 -62 -50 -38 -16 -102 -51 -143 -78 -109 -73 -157 -142 -140
-203 20 -76 162 -186 320 -248 83 -33 96 -33 108 2 10 27 17 43 39 92 9 22 10
20 5 -15 -4 -22 -11 -46 -17 -53 -5 -7 -7 -15 -5 -18 3 -3 15 6 26 20 10 14
23 22 27 18 5 -4 5 1 2 11 -4 11 -3 16 3 12 15 -9 13 -58 -2 -49 -7 4 -10 4
-6 -1 4 -4 3 -17 -3 -28 -8 -14 -8 -18 0 -13 6 4 23 28 36 54 25 47 24 21 0
-28 -13 -25 -155 -120 -180 -120 -19 0 -174 64 -220 91 -162 94 -257 220 -241
322 19 120 131 225 335 314 87 38 91 38 91 18z m795 -125 c17 -7 17 -9 3 -9
-10 -1 -18 -7 -18 -15 0 -21 -193 -201 -215 -201 -16 0 -20 7 -18 30 4 50 11
69 43 114 49 66 148 106 205 81z m153 -308 c-27 -53 -85 -97 -138 -107 l-35
-6 35 18 c19 9 37 21 38 25 2 4 10 8 18 8 9 0 12 5 9 10 -3 6 2 13 12 17 22 9
43 28 43 41 0 6 8 24 18 41 27 49 28 7 0 -47z m516 -382 c46 -205 19 -404 -68
-498 -79 -87 -230 -86 -393 3 -67 37 -233 163 -233 177 0 11 17 10 25 -2 4 -6
12 -4 22 5 11 12 19 13 28 5 23 -19 24 13 2 38 -11 12 -16 22 -10 22 5 0 18
-9 28 -20 25 -27 151 -113 212 -144 29 -14 78 -33 109 -41 54 -14 59 -14 96 7
28 16 46 37 65 77 25 52 27 65 28 186 0 72 -3 159 -6 195 -4 36 -5 57 -2 48 5
-21 5 -21 38 -6 14 6 25 18 25 27 0 34 18 -8 34 -79z m-732 -332 c-7 -7 -12
-8 -12 -2 0 14 12 26 19 19 2 -3 -1 -11 -7 -17z m11208 -2082 c4 -92 8 -110
24 -122 22 -16 55 -10 74 14 8 10 12 52 12 119 0 87 2 103 16 103 14 0 15 -15
12 -116 -3 -108 -5 -117 -27 -135 -33 -27 -86 -25 -116 6 -24 23 -25 31 -25
135 0 85 3 111 13 108 8 -3 14 -39 17 -112z m272 101 c-8 -9 -7 -24 2 -52 l14
-39 16 33 c10 17 14 41 11 51 -6 18 -1 20 34 20 l40 0 -39 -57 c-22 -31 -40
-62 -40 -68 0 -17 47 -100 65 -115 24 -20 17 -30 -20 -30 -30 0 -35 3 -35 25
0 27 -19 75 -31 75 -8 0 -23 -46 -23 -74 -1 -16 -10 -21 -38 -24 -41 -4 -48 6
-20 31 9 9 28 36 42 61 l24 45 -23 43 c-13 24 -30 50 -37 59 -22 24 -17 29 27
29 33 0 39 -3 31 -13z m202 -24 c3 -21 6 -68 6 -104 0 -51 5 -72 19 -90 19
-23 21 -23 48 -9 27 15 28 19 37 128 6 73 13 111 20 109 14 -4 20 -103 11
-175 -9 -70 -32 -94 -87 -90 -57 4 -77 34 -85 125 -9 111 16 197 31 106z m356
27 c0 -5 -9 -10 -20 -10 -16 0 -20 -7 -20 -37 0 -21 -3 -68 -6 -105 -7 -67 -7
-67 21 -78 41 -16 18 -32 -40 -28 -47 3 -79 28 -36 28 20 0 21 5 21 104 0 96
-2 105 -20 111 -39 12 -19 25 40 25 33 0 60 -4 60 -10z m479 -16 c57 -48 62
-144 11 -206 -26 -31 -31 -33 -91 -33 l-64 0 -3 133 -3 132 60 0 c49 0 65 -4
90 -26z m671 6 c0 -13 -7 -20 -20 -20 -13 0 -20 7 -20 20 0 13 7 20 20 20 13
0 20 -7 20 -20z m-429 -80 c22 -22 29 -37 27 -57 -3 -28 -4 -28 -73 -28 -38 0
-71 -3 -72 -7 -5 -17 10 -37 38 -49 26 -10 34 -9 57 8 51 37 55 38 38 5 -18
-34 -34 -42 -84 -42 -59 1 -92 38 -92 105 0 27 8 44 29 66 41 40 91 40 132 -1z
m223 20 c39 -14 33 -33 -6 -24 -45 11 -76 8 -93 -6 -22 -18 -2 -37 48 -45 80
-13 109 -54 70 -97 -30 -33 -163 -19 -163 18 0 10 5 14 14 11 44 -17 99 -27
116 -22 31 10 25 44 -7 50 -107 22 -132 41 -114 89 14 34 80 47 135 26z m204
-77 c3 -75 5 -83 22 -83 11 0 20 -7 20 -15 0 -11 -13 -15 -54 -15 -56 0 -85
17 -47 27 23 6 23 5 23 83 0 43 -3 56 -16 58 -9 2 -16 10 -16 18 0 11 9 14 33
12 l32 -3 3 -82z m310 -24 c2 -94 0 -108 -18 -131 -11 -15 -33 -29 -49 -33
-31 -7 -101 17 -101 34 0 14 27 14 35 1 12 -20 73 -11 89 12 23 32 20 38 -13
32 -37 -8 -98 12 -111 36 -6 10 -10 38 -10 62 0 72 35 99 120 95 l55 -2 3
-106z m94 100 c2 -7 12 -7 33 1 16 6 44 9 62 5 34 -6 35 -8 47 -84 8 -46 -4
-111 -20 -111 -10 0 -14 22 -16 83 l-3 82 -30 3 c-51 5 -67 -15 -73 -97 -7
-107 -26 -86 -30 32 -2 80 0 97 12 97 8 0 16 -5 18 -11z m-6047 -950 c70 -26
149 -80 153 -105 2 -18 -77 -125 -97 -132 -5 -2 -28 10 -51 27 -146 105 -353
22 -390 -156 -22 -104 8 -201 83 -270 53 -49 110 -67 183 -60 59 6 102 25 161
73 23 19 45 34 49 34 14 0 114 -103 114 -117 0 -17 -74 -89 -124 -120 -94 -60
-220 -83 -314 -59 -170 43 -284 154 -332 323 -48 167 -6 336 115 458 122 124
292 163 450 104z m856 21 c179 -33 325 -187 359 -380 27 -149 -30 -313 -146
-419 -99 -91 -241 -135 -355 -112 -315 66 -470 424 -305 705 35 60 127 143
190 172 90 41 165 51 257 34z m4994 -5 c84 -22 147 -60 210 -126 184 -192 172
-489 -26 -674 -60 -56 -131 -90 -222 -106 -226 -38 -449 133 -493 381 -56 320
230 603 531 525z m-12795 -170 c0 -96 3 -175 7 -175 4 0 87 79 184 175 l176
176 116 -2 c65 0 117 -4 117 -8 0 -3 -89 -96 -199 -205 l-199 -199 209 -234
c115 -129 209 -239 209 -244 0 -14 -213 -11 -232 4 -8 6 -79 85 -157 175 -78
89 -148 162 -155 162 -7 0 -26 -15 -44 -33 l-31 -32 -3 -140 -3 -140 -84 -3
c-50 -2 -88 1 -95 8 -10 10 -10 865 0 882 3 4 45 8 95 8 l89 0 0 -175z m1318
146 c2 -14 1 -53 -3 -88 l-7 -63 -179 0 -179 0 0 -80 0 -80 162 -2 161 -3 -2
-80 c-1 -43 -5 -83 -7 -87 -3 -4 -75 -8 -160 -8 l-154 0 0 -100 0 -100 183 -2
182 -3 3 -65 c2 -35 0 -75 -3 -87 l-5 -23 -274 0 -273 0 -6 68 c-9 87 -9 711
-1 780 l7 52 276 -2 276 -3 3 -24z m537 -233 c108 -145 204 -274 215 -288 19
-25 19 -24 19 231 1 141 4 271 7 288 l7 32 91 -3 91 -3 0 -445 0 -445 -86 -3
-86 -3 -34 39 c-19 22 -113 148 -209 280 -96 132 -178 241 -182 241 -5 1 -8
-115 -8 -256 0 -142 -3 -268 -6 -280 -6 -22 -12 -23 -94 -23 -71 0 -89 3 -94
16 -8 20 -8 848 0 868 5 13 23 16 90 16 l84 0 195 -262z m791 240 c11 -13 49
-63 84 -113 35 -49 123 -169 195 -264 l130 -175 3 287 2 287 94 0 c89 0 94 -1
100 -22 9 -36 7 -841 -3 -857 -10 -15 -125 -27 -164 -17 -16 4 -47 37 -88 93
-98 136 -348 473 -351 473 -2 0 -5 -125 -7 -278 -1 -152 -6 -281 -10 -285 -5
-4 -46 -7 -92 -5 l-84 3 -3 435 c-1 239 0 441 3 448 3 8 30 12 88 12 74 0 86
-3 103 -22z m1332 -65 l-3 -88 -177 -3 -178 -2 -1 -28 c-1 -15 -1 -49 -1 -77
l0 -50 143 -1 c79 0 152 -1 162 -2 15 -2 17 -13 17 -86 0 -67 -3 -85 -16 -90
-9 -3 -81 -6 -160 -6 l-144 0 0 -100 0 -100 180 0 181 0 -3 -87 -3 -88 -275 0
-275 0 -3 435 c-1 239 0 441 3 448 3 9 69 12 280 12 l276 0 -3 -87z m602 76
c132 -21 243 -111 290 -236 93 -244 7 -530 -188 -621 -57 -27 -59 -27 -292
-27 l-235 0 -3 435 c-1 239 0 441 3 448 6 15 329 17 425 1z m670 1 c10 -5 55
-66 100 -135 45 -69 85 -123 89 -121 3 3 44 61 90 130 77 114 88 125 120 131
35 6 201 3 201 -3 0 -2 -71 -108 -157 -235 l-158 -232 -2 -200 c-1 -110 -2
-206 -2 -213 -1 -10 -23 -12 -93 -10 l-93 3 -3 208 -2 208 -151 225 c-83 124
-153 232 -156 240 -4 12 13 14 97 14 56 0 110 -4 120 -10z m3562 -23 c94 -46
156 -155 146 -258 -7 -70 -54 -157 -105 -194 -23 -16 -42 -34 -42 -39 -1 -4
32 -51 72 -103 166 -217 197 -258 197 -265 0 -5 -48 -8 -106 -8 -97 0 -107 2
-124 23 -10 12 -62 81 -116 152 -132 177 -140 185 -186 185 l-38 0 -2 -177 -3
-178 -95 0 -95 0 -2 440 c-1 329 1 442 10 448 7 4 107 6 222 5 207 -3 211 -3
267 -31z m835 24 c129 -19 233 -93 284 -201 93 -197 66 -432 -66 -578 -90 -99
-114 -106 -397 -110 l-238 -4 0 444 c0 245 3 448 7 451 10 10 338 8 410 -2z
m1051 -61 c6 -118 19 -110 -189 -110 l-180 0 3 -77 3 -78 155 -3 c85 -2 156
-5 159 -7 7 -7 3 -156 -4 -163 -4 -4 -76 -8 -161 -10 l-154 -3 0 -99 0 -100
183 -2 182 -3 0 -85 0 -85 -277 -3 -278 -2 0 443 c0 244 3 447 7 450 4 4 128
6 277 5 l271 -3 3 -65z m492 -15 l0 -85 -30 0 -30 0 0 -280 0 -279 36 -7 36
-7 -6 -51 c-3 -28 -6 -63 -6 -78 l0 -28 -160 0 -161 0 3 83 c3 81 3 82 31 85
l27 3 0 280 0 279 -30 0 -30 0 0 85 0 85 160 0 160 0 0 -85z m626 70 c191 -57
248 -317 99 -454 -25 -23 -49 -41 -55 -41 -21 0 -8 -25 58 -109 146 -185 202
-260 202 -271 0 -7 -34 -10 -107 -8 l-107 3 -116 152 c-152 201 -156 205 -200
201 l-35 -3 -5 -175 -5 -175 -92 -3 -92 -3 -3 400 c-2 221 -1 423 0 451 l4 50
202 0 c149 0 215 -4 252 -15z m-1607 -1501 c1 -1 0 -7 -4 -13 -3 -6 -35 -11
-71 -11 l-64 0 0 -45 0 -45 50 0 c37 0 50 -4 50 -14 0 -9 -9 -14 -22 -14 -73
4 -78 1 -78 -47 l0 -45 71 0 c52 0 70 -3 67 -12 -3 -9 -32 -14 -86 -16 l-82
-3 0 63 c-2 163 -2 194 -1 205 1 8 25 10 84 6 45 -3 84 -7 86 -9z m470 2 c8
-9 11 -55 9 -137 l-3 -123 -62 -4 c-56 -3 -66 0 -88 22 -33 33 -36 115 -5 146
23 23 61 34 95 28 15 -3 26 0 30 9 7 19 -2 33 -21 33 -17 0 -19 26 -1 33 22 9
34 7 46 -7z m-1899 -6 c0 -6 -30 -10 -71 -10 l-70 0 3 -47 3 -48 48 -3 c62 -4
61 -22 -3 -22 l-49 0 -3 -62 c-2 -36 -8 -63 -15 -65 -9 -3 -13 28 -15 114 -2
65 -1 126 1 136 3 14 15 17 87 17 49 0 84 -4 84 -10z m844 -6 c3 -9 6 -24 6
-35 0 -13 7 -19 24 -19 33 0 57 -10 50 -21 -3 -5 -18 -9 -34 -9 -16 0 -30 -7
-34 -16 -9 -25 -7 -83 4 -105 14 -25 56 -25 72 1 16 24 28 26 28 3 0 -28 -31
-53 -65 -53 -52 0 -74 26 -81 95 -4 37 -13 65 -23 73 -15 12 -15 14 1 26 15
11 24 33 27 69 2 13 19 7 25 -9z m1508 5 c25 -14 57 -84 58 -127 0 -48 -28
-100 -62 -118 -18 -9 -49 -14 -81 -12 l-52 3 -3 133 -3 132 61 0 c34 0 70 -5
82 -11z m920 -74 c1 -47 2 -100 2 -117 1 -22 7 -35 19 -40 31 -13 8 -28 -44
-28 -50 0 -63 11 -31 29 14 8 17 25 17 113 0 99 -1 103 -23 106 -34 5 -16 22
24 22 l34 0 2 -85z m-3132 4 c59 6 95 5 98 -4 1 -5 -13 -11 -32 -13 -45 -4
-68 -32 -74 -90 -4 -44 -2 -50 17 -55 11 -3 21 -10 21 -17 0 -16 -102 -9 -108
8 -2 6 3 12 11 12 20 0 27 22 27 82 0 41 -3 51 -20 55 -11 3 -20 12 -20 20 0
12 7 14 33 8 17 -4 39 -7 47 -6z m321 -18 c39 -39 40 -96 3 -140 -22 -26 -33
-31 -69 -31 -32 0 -52 7 -72 24 -24 21 -28 32 -28 76 0 44 4 55 28 76 41 35
99 33 138 -5z m113 13 c6 -16 8 -16 24 0 20 17 68 21 90 7 24 -15 42 -135 26
-175 -3 -9 -12 -16 -20 -16 -10 0 -14 21 -16 83 l-3 82 -31 3 c-45 4 -65 -24
-71 -103 -4 -46 -10 -65 -19 -65 -11 0 -14 22 -14 100 0 79 3 100 14 100 8 0
17 -7 20 -16z m952 6 c6 -6 20 -6 40 2 37 14 80 4 93 -21 12 -22 17 -143 6
-160 -17 -28 -29 -2 -26 57 3 83 -4 102 -38 102 -50 0 -65 -21 -71 -96 -3 -41
-10 -69 -17 -72 -10 -3 -13 21 -13 97 0 97 4 113 26 91z m1087 -30 c30 -34 35
-65 11 -74 -9 -3 -47 -6 -85 -6 -77 0 -85 -15 -23 -45 30 -14 36 -14 63 0 45
23 60 18 28 -10 -85 -75 -206 23 -154 125 29 58 112 63 160 10z m133 -49 c16
-38 32 -67 35 -65 4 2 20 35 35 74 23 60 47 90 61 76 5 -5 -64 -165 -79 -184
-22 -26 -41 -5 -79 83 -45 103 -46 109 -20 96 10 -6 31 -42 47 -80z m331 67
c21 -17 45 -76 37 -89 -3 -6 -29 -8 -65 -4 -33 3 -68 3 -79 0 -25 -8 -15 -32
21 -50 25 -13 32 -13 63 2 43 20 60 9 26 -17 -39 -30 -100 -26 -132 8 -14 15
-28 38 -31 51 -8 32 19 96 46 110 27 13 92 7 114 -11z m497 -19 c23 -26 27
-38 22 -67 -6 -39 -49 -90 -82 -98 -53 -13 -124 48 -124 106 0 29 29 76 54 89
38 19 98 5 130 -30z m205 27 c48 -25 67 -99 35 -144 -23 -33 -70 -54 -104 -47
-27 6 -29 4 -36 -29 -3 -20 -10 -36 -14 -36 -12 0 -15 42 -12 157 4 111 2 109
70 112 18 0 45 -5 61 -13z m235 4 c28 -10 59 -62 54 -88 -3 -14 -16 -17 -75
-17 -39 0 -75 -4 -80 -8 -11 -11 43 -57 66 -57 10 0 24 7 31 15 7 8 22 15 33
15 20 0 20 -1 -3 -25 -36 -38 -102 -35 -141 6 -33 35 -37 74 -14 119 25 48 71
62 129 40z m166 -5 c10 -12 15 -12 35 1 25 16 82 16 77 -1 -1 -5 -10 -10 -20
-11 -9 -1 -29 -4 -45 -9 -28 -7 -31 -14 -41 -92 -5 -38 -4 -42 16 -45 13 -2
22 -7 21 -13 -4 -14 -113 -19 -113 -5 0 5 9 10 20 10 18 0 20 7 20 70 0 59 -3
71 -20 80 -11 6 -18 15 -15 21 9 14 51 11 65 -6z"/>
<path d="M3184 8348 c3 -15 26 -23 26 -8 0 6 -4 9 -9 6 -5 -4 -12 -1 -14 4 -3
6 -4 5 -3 -2z"/>
<path d="M15356 4641 c-4 -5 -6 -55 -5 -111 l1 -100 44 0 c39 0 47 4 65 33 25
40 21 130 -8 158 -22 21 -88 35 -97 20z"/>
<path d="M15596 4548 c-20 -29 -7 -38 57 -38 49 0 55 7 37 41 -15 28 -74 26
-94 -3z"/>
<path d="M16316 4548 c-36 -51 -9 -118 47 -118 43 0 60 26 52 79 -9 60 -10 61
-50 61 -24 0 -39 -7 -49 -22z"/>
<path d="M11220 3471 c-67 -22 -137 -80 -170 -141 -17 -32 -24 -149 -11 -197
19 -71 70 -135 131 -166 48 -25 63 -28 117 -24 147 11 243 133 230 292 -7 96
-58 174 -140 216 -44 23 -120 32 -157 20z"/>
<path d="M16190 3471 c-80 -26 -146 -88 -175 -164 -22 -58 -17 -164 11 -222
74 -158 264 -193 385 -72 50 50 71 99 77 179 8 112 -46 211 -141 259 -44 23
-120 32 -157 20z"/>
<path d="M7895 3468 c-3 -7 -4 -128 -3 -268 l3 -255 109 -3 c101 -3 111 -1
152 23 85 50 126 169 104 307 -13 87 -46 148 -97 180 -33 20 -54 23 -150 27
-89 2 -114 0 -118 -11z"/>
<path d="M12067 3473 c-4 -3 -7 -44 -7 -90 l0 -83 100 0 c94 0 103 2 125 25
36 35 34 88 -4 126 -28 28 -33 29 -119 29 -49 0 -92 -3 -95 -7z"/>
<path d="M12970 3210 l0 -270 105 0 c121 0 156 11 201 62 52 60 67 113 62 225
-5 110 -24 161 -78 206 -42 36 -89 47 -197 47 l-93 0 0 -270z"/>
<path d="M15107 3473 c-4 -3 -7 -44 -7 -90 l0 -83 99 0 c83 0 102 3 123 20 48
37 41 118 -13 145 -29 15 -189 22 -202 8z"/>
<path d="M14112 2034 c-33 -23 -28 -89 10 -117 23 -17 31 -19 53 -9 24 11 26
16 23 75 -3 61 -4 62 -33 65 -16 1 -40 -5 -53 -14z"/>
<path d="M14590 2120 c-11 -7 -16 -34 -18 -110 l-4 -100 45 0 c60 0 87 31 87
101 0 63 -16 96 -53 109 -36 12 -38 12 -57 0z"/>
<path d="M12671 2024 c-12 -15 -21 -38 -21 -51 0 -29 42 -73 70 -73 30 0 70
44 70 78 0 66 -79 96 -119 46z"/>
<path d="M14821 2026 c-27 -29 -22 -32 46 -35 59 -2 72 10 43 39 -27 27 -61
25 -89 -4z"/>
<path d="M15300 2025 c-13 -14 -22 -25 -19 -26 2 0 30 -3 62 -5 62 -6 75 7 39
39 -26 24 -55 21 -82 -8z"/>
<path d="M15771 2024 c-25 -32 -26 -46 -6 -84 35 -67 125 -36 125 44 0 62 -81
89 -119 40z"/>
<path d="M16023 2042 c-14 -9 -17 -28 -15 -84 4 -73 89 -74 113 -1 10 31 9 39
-8 62 -20 27 -67 39 -90 23z"/>
<path d="M16257 2032 c-30 -33 -21 -42 43 -42 65 0 76 12 42 43 -24 22 -65 21
-85 -1z"/>
</g>
</svg>
