<svg width="480" height="460" viewBox="0 0 480 460" fill="none" xmlns="http://www.w3.org/2000/svg">
<path d="M230 0C158.32 0 99.9998 82.9233 99.9998 184.863C99.9998 235.81 114.85 281.545 138.418 314.922C132.787 322.258 130 331.147 130 340C130 349.722 133.187 359.579 140.019 367.266C146.852 374.952 157.5 380 170 380C182.5 380 193.148 374.952 199.98 367.266C206.813 359.579 210 349.722 210 340C210 330.278 206.813 320.421 199.98 312.734C193.148 305.048 182.5 300 170 300C164.179 300 158.823 301.179 154.004 303.125C133.177 273.178 120 231.44 120 184.863C120 93.9533 169.35 20 230 20C284.19 20 329.232 79.0939 338.242 156.504C345.312 159.194 352.327 162.226 359.277 165.566C352.467 72.6664 297.1 0 230 0ZM210 130C197.5 130 186.852 135.048 180.019 142.734C173.187 150.421 170 160.278 170 170C170 179.722 173.187 189.579 180.019 197.266C186.852 204.952 197.5 210 210 210C222.5 210 233.148 204.952 239.98 197.266C244.251 192.461 246.942 186.777 248.476 180.84C284.252 179.301 324.459 189.871 361.426 212.031C440.366 259.351 480.128 341.867 450.058 395.957C439.318 415.267 420.569 428.976 395.859 435.586C361.239 444.866 318.715 439.161 278.125 420.801C272.265 425.511 266.067 429.967 259.687 434.277C292.937 451.067 328.125 459.961 360.625 459.961C374.735 459.961 388.335 458.302 401.035 454.902C431.105 446.852 454.109 429.824 467.539 405.664C502.779 342.244 459.789 247.693 371.699 194.883C331.939 171.032 288.255 159.365 248.867 160.645C247.441 154.164 244.608 147.94 239.98 142.734C233.148 135.048 222.5 130 210 130ZM210 150C217.5 150 221.852 152.452 225.019 156.016C228.187 159.579 230 164.722 230 170C230 175.278 228.187 180.421 225.019 183.984C221.852 187.548 217.5 190 210 190C202.5 190 198.148 187.548 194.98 183.984C191.813 180.421 190 175.278 190 170C190 164.722 191.813 159.579 194.98 156.016C198.148 152.452 202.5 150 210 150ZM81.6209 213.32C11.9809 267.72 -18.9797 349.064 12.4803 405.664C25.9103 429.824 48.9142 446.833 78.9842 454.883C91.6942 458.283 105.284 459.961 119.394 459.961C157.394 459.961 199.11 447.877 237.07 425.117C282.627 397.805 315.437 359.331 332.129 319.785C343.677 319.232 353.551 314.498 359.98 307.266C366.813 299.579 370 289.722 370 280C370 270.278 366.813 260.421 359.98 252.734C353.148 245.048 342.5 240 330 240C317.5 240 306.852 245.048 300.019 252.734C293.187 260.421 290 270.278 290 280C290 289.722 293.187 299.579 300.019 307.266C303.34 311.001 307.602 314.076 312.5 316.289C296.815 350.377 267.152 383.766 226.777 407.969C179.277 436.459 125.96 446.786 84.1405 435.586C59.4205 428.966 40.6908 415.267 29.9608 395.957C4.54077 350.227 29.1494 284.278 85.0194 236.348C83.5694 228.838 82.4409 221.14 81.6209 213.32ZM330 260C337.5 260 341.852 262.452 345.019 266.016C348.187 269.579 350 274.722 350 280C350 285.278 348.187 290.421 345.019 293.984C341.852 297.548 337.5 300 330 300C322.5 300 318.148 297.548 314.98 293.984C311.813 290.421 310 285.278 310 280C310 274.722 311.813 269.579 314.98 266.016C318.148 262.452 322.5 260 330 260ZM170 320C177.5 320 181.852 322.452 185.019 326.016C188.187 329.579 190 334.722 190 340C190 345.278 188.187 350.421 185.019 353.984C181.852 357.548 177.5 360 170 360C162.5 360 158.148 357.548 154.98 353.984C151.813 350.421 150 345.278 150 340C150 334.722 151.813 329.579 154.98 326.016C158.148 322.452 162.5 320 170 320Z" fill="white"/>
</svg>
