<svg width="451" height="434" viewBox="0 0 451 434" fill="none" xmlns="http://www.w3.org/2000/svg">
<path fill-rule="evenodd" clip-rule="evenodd" d="M225.5 9.00003C174.1 8.97401 124.369 26.9772 85.2118 59.7858C46.0548 92.5944 20.0291 138.066 11.7951 188.058C3.561 238.05 13.6563 289.297 40.2733 332.624C66.8902 375.95 108.29 408.526 157.061 424.518C167.931 426.502 171.856 419.957 171.856 414.602C171.856 409.246 171.856 396.156 171.856 378.405C111.468 391.297 98.9883 349.844 98.9883 349.844C94.9939 336.728 86.3034 325.487 74.5314 318.209C54.9054 305.02 76.041 305.218 76.041 305.218C82.8965 306.163 89.4427 308.638 95.1808 312.453C100.919 316.268 105.698 321.323 109.153 327.234C128.477 359.86 159.476 350.439 172.158 344.985C173.159 334.151 178.048 324.025 185.946 316.424C137.837 311.069 87.3134 292.822 87.3134 211.107C86.9945 189.908 94.9995 169.407 109.657 153.886C102.998 135.505 103.754 115.306 111.77 97.4588C111.77 97.4588 129.886 91.707 171.252 119.276C206.704 109.756 244.095 109.756 279.547 119.276C320.912 91.707 339.028 97.4588 339.028 97.4588C346.984 115.32 347.739 135.496 341.142 153.886C355.771 169.417 363.741 189.92 363.384 211.107C363.384 293.02 313.062 310.97 264.651 316.325C269.846 321.511 273.846 327.738 276.382 334.582C278.917 341.427 279.928 348.729 279.345 355.993C279.345 384.454 279.345 407.461 279.345 414.502C279.345 421.543 283.271 426.799 294.241 424.419C342.961 408.365 384.296 375.755 410.85 332.422C437.405 289.09 447.446 237.862 439.179 187.903C430.912 137.944 404.876 92.5119 365.728 59.7349C326.579 26.9579 276.873 8.97396 225.5 9.00003Z" stroke="white" stroke-width="16.6667" stroke-linecap="round" stroke-linejoin="round"/>
</svg>
